<?xml version="1.0" encoding="UTF-8" standalone="no"?>
<!-- Created with Inkscape (http://www.inkscape.org/) -->
<svg id="svg2" xmlns:rdf="http://www.w3.org/1999/02/22-rdf-syntax-ns#" style="enable-background:new;" xmlns="http://www.w3.org/2000/svg" height="242.28" width="190.29" version="1.1" xmlns:cc="http://creativecommons.org/ns#" xmlns:xlink="http://www.w3.org/1999/xlink" xmlns:dc="http://purl.org/dc/elements/1.1/">
 <defs id="defs4">
  <linearGradient id="linearGradient4277" y2="538.61" gradientUnits="userSpaceOnUse" x2="635.46" gradientTransform="matrix(0.42237995,0,0,0.42237995,-30.18431,128.82305)" y1="538.61" x1="242.44">
   <stop id="stop4273" stop-color="#000" offset="0"/>
   <stop id="stop4275" stop-color="#00a300" offset="1"/>
  </linearGradient>
  <radialGradient id="radialGradient4394" gradientUnits="userSpaceOnUse" cx="421.74" cy="873.57" r="131.82" gradientTransform="matrix(1,0,0,0.29118773,0,619.19372)">
   <stop id="stop4333-4" stop-color="#000" offset="0"/>
   <stop id="stop4438" stop-color="#000b00" stop-opacity="0.96923077" offset="0.5"/>
   <stop id="stop4335-6" stop-color="#001700" stop-opacity="0.1" offset="1"/>
  </radialGradient>
  <linearGradient id="linearGradient4361" y2="709.83" gradientUnits="userSpaceOnUse" x2="568.28" gradientTransform="matrix(0.42237995,0,0,0.42237995,-30.18431,128.82305)" y1="709.83" x1="309.22">
   <stop id="stop4431" stop-color="#808080" offset="0"/>
   <stop id="stop4433" stop-color="#000" offset="1"/>
  </linearGradient>
  <linearGradient id="linearGradient4367" y2="402.36" gradientUnits="userSpaceOnUse" x2="638.19" gradientTransform="matrix(0.42237995,0,0,0.42237995,-30.18431,128.82305)" y1="402.36" x1="243.24">
   <stop id="stop4423" stop-color="#808080" offset="0"/>
   <stop id="stop4425" stop-color="#000" offset="1"/>
  </linearGradient>
  <linearGradient id="linearGradient4373" y2="363.44" gradientUnits="userSpaceOnUse" x2="638.95" gradientTransform="matrix(0.42237995,0,0,0.42237995,-30.18431,128.82305)" y1="363.44" x1="243.93">
   <stop id="stop4463" stop-color="#808080" offset="0"/>
   <stop id="stop4465" stop-color="#000" offset="1"/>
  </linearGradient>
  <linearGradient id="linearGradient4379" y2="450.93" gradientUnits="userSpaceOnUse" x2="625.34" gradientTransform="matrix(0.42237995,0,0,0.42237995,-30.18431,128.82305)" y1="450.93" x1="251.09">
   <stop id="stop4455" stop-color="#808080" offset="0"/>
   <stop id="stop4457" stop-color="#000" offset="1"/>
  </linearGradient>
  <linearGradient id="linearGradient4385" y2="515.22" gradientUnits="userSpaceOnUse" x2="610.87" gradientTransform="matrix(0.42237995,0,0,0.42237995,-30.18431,128.82305)" y1="515.22" x1="264.52">
   <stop id="stop4439" stop-color="#808080" offset="0"/>
   <stop id="stop4441" stop-color="#000" offset="1"/>
  </linearGradient>
  <linearGradient id="linearGradient4391" y2="569.51" gradientUnits="userSpaceOnUse" x2="598.9" gradientTransform="matrix(0.42237995,0,0,0.42237995,-30.18431,128.82305)" y1="569.51" x1="275.51">
   <stop id="stop4447" stop-color="#808080" offset="0"/>
   <stop id="stop4449" stop-color="#000" offset="1"/>
  </linearGradient>
 </defs>
 <metadata id="metadata7">
  <rdf:RDF>
   <cc:Work rdf:about="">
    <dc:format>image/svg+xml</dc:format>
    <dc:type rdf:resource="http://purl.org/dc/dcmitype/StillImage"/>
    <dc:title/>
   </cc:Work>
  </rdf:RDF>
 </metadata>
 <g id="layer3" transform="translate(-60.269341,-206.45025)">
  <path id="path4329" opacity="0.98000004" d="m553.56,873.57c0,21.2-59.02,38.386-131.82,38.386-72.805,0-131.82-17.186-131.82-38.386s59.02-38.386,131.82-38.386c72.805,0,131.82,17.186,131.82,38.386z" fill-rule="nonzero" transform="matrix(0.72176806,0,0,0.42237995,-148.98116,63.54282)" fill="url(#radialGradient4394)"/>
  <path id="path3999-8" style="baseline-shift:baseline;block-progression:tb;color:#000000;direction:ltr;text-indent:0;text-align:start;enable-background:accumulate;text-transform:none;" d="m156.34,276.82c-22.836,0-44.364,1.7645-59.34,4.6066-7.4877,1.421-11.415,2.2495-15.62,4.136-2.1023,0.94327-6.2948,1.9419-7.4174,2.9831s-1.7423,2.1422-1.7423,3.2866h0.34319c0-1.0217,0.55697-2.0345,1.6367-3.0358,1.0798-1.0014-2.4531,0.86295-1.5707,2.9661,14.759,35.18,23.613,126.12,27.992,132.34,6.1825,8.7781,30.88,11.638,53.691,12.211,76.486,1.92,56.181-98.952,83.256-141.72,5.6103-8.8625-26.734-14.187-24.089-13.685,7.4719,1.418,13.525,3.1088,17.687,4.9762,2.0809,0.93366,3.6852,1.9157,4.765,2.9171s1.6235,2.0142,1.6235,3.0358h0.34318c0-1.1444-0.6065-2.2455-1.7291-3.2866-1.1226-1.0412-2.7683-2.0398-4.8706-2.9831-4.2045-1.8865-10.265-3.5683-17.753-4.9894-14.975-2.842-34.37-3.7532-57.206-3.7532zm-83.776,14.075-0.32999,0.066,26.848,129.88,0.34318-0.066zm164.99,0.88436-28.801,129.29,5.45-24.668,23.694-104.55zm-147.9,47.93c0,2.2528,10.977,85.426,13.782,87.323,2.8047,1.8979,6.8305,3.6027,11.813,5.029,9.966,2.8524,23.725,4.6066,38.912,4.6066s28.933-1.7541,38.899-4.6066c4.983-1.4262,9.022-3.131,11.827-5.029,2.8047-1.8979,13.355-40.697,13.355-42.95l-28.503,26.027c0,2.0901-9.6005,6.2474-12.357,8.1127-2.7564,1.8652,13.293-4.1237,8.3324-2.7039-9.9214,2.8397-16.393,20.807-31.553,20.807s-28.885-1.7537-38.806-4.5934c-4.9607-1.4198-8.9779-3.1109-11.734-4.9762-2.7564-1.8652-3.3837-9.4359-3.3837-11.526z" fill-rule="nonzero" fill="url(#linearGradient4277)"/>
  <path id="path3999-3" style="baseline-shift:baseline;block-progression:tb;color:#000000;direction:ltr;text-indent:0;text-align:start;enable-background:accumulate;text-transform:none;" fill="url(#linearGradient4373)" d="m156.27,273.73c-22.834,0-43.498,1.7234-58.513,4.5274-7.5075,1.402-13.598,3.0703-17.885,4.963-2.1434,0.94634-3.8434,1.9431-5.0554,3.0491-1.2119,1.106-2.8718,2.9888-2.8718,4.3784h2.7002c0-0.73823,0.39927-2.1449,1.3859-3.0453,0.98666-0.90042,2.5345-1.8349,4.567-2.7323,4.0651-1.7948,10.063-3.4573,17.489-4.8442,14.853-2.7736,35.44-4.501,58.183-4.501s43.33,1.7273,58.183,4.501c7.4263,1.3868,13.424,3.0494,17.489,4.8442,2.0325,0.8974,3.5803,1.8318,4.567,2.7323,0.98665,0.90043,1.3859,1.7037,1.3859,2.4419h1.7951c0-1.3896-0.75479-2.669-1.9667-3.775s-2.912-2.1027-5.0554-3.0491c-4.2868-1.8927-10.378-3.561-17.885-4.963-15.015-2.804-35.679-4.5274-58.513-4.5274z"/>
 </g>
 <g id="layer1" transform="translate(-60.269341,-206.45025)">
  <g id="g4353" fill-rule="evenodd" transform="matrix(0.42237995,0,0,0.42237995,-142.77016,155.45841)">
   <path id="path4344" d="m751.04,177.45-0.21875,0.53125-17.438,43.625-22.375,2.875-25.344,55.531-3.9688,10.938-21.844,13,9.9688,19.688-11.031,30.375,45.031,42.188,3.3438,30.75,14.344-19.469,16.312,6.25c-0.89904,16.26-0.62415,27.925,1.5,25.656l56.969-3.3125,58.281,22.281-17-29.188,28.625-5.4375,0.5624,0.0937,24.719-24.938-10.938-34.344,27-26.719-18.406-22.812,25.438-58.5,0.2187-0.53125-0.5625-0.0625-55.281-5.5312-15.625-44.75-55.469,8.9375-36.406-36.75-0.40625-0.375zm-91.188,126.5-3.4688-6.8438-25.25,23.938,0.5-0.3125,28.219-16.781z" fill="#e8c7b1"/>
   <path id="path3009-7-8" stroke-linejoin="miter" d="m907.54,337.83-78.146,77.295,25.183,43.24-142.57-54.515-53.226-49.827,26.896-74.013,25.327-55.506,75.793-9.7566,56.532-9.1038,32.293,92.609zm-156.5-160.38-0.2221,0.55866-37.708,94.255-81.487,48.497-0.49357,0.29264,25.239-23.924,46.698,92.107,4.0824,37.731,49.737-67.518c-8.3199-89.231-25.35,88.243-17.581,79.946l63.856-3.7092,63.038-11.926,0.5676,0.0798,24.696-24.935-16.39-51.488,39.485-90.876,0.2221-0.55867-0.5429-0.0532-94.813-9.4973-67.988-68.583-0.39484-0.39904zm0.27145,1.4366,67.667,68.237,0.0987,0.10644-17.927,31.646,51.549-2.6907,21.607,70.992-0.074,0.13302,0.025,0.15963-94.267-4.9064,23.12,92.244-0.1234,0-0.12338,0.0798-43.155-35.447-55.903-10.523-0.0246-0.13301-0.0987-0.10644-3.5078-65.033,135.27-6.9358-121.72-43.834,67.738-9.8887-9.8465-50.048z" stroke="#000" stroke-linecap="butt" stroke-miterlimit="4" stroke-dasharray="none" stroke-width="4.81870365" fill="#5e57ff"/>
  </g>
  <g id="g4293" transform="matrix(0.42237995,0,0,0.42237995,-260.58512,138.20975)">
   <g id="g4267" fill-rule="evenodd" fill="#e8ffb1" transform="translate(998.21691,-82.906869)">
    <path id="path4265" style="baseline-shift:baseline;block-progression:tb;color:#000000;direction:ltr;text-indent:0;text-align:start;enable-background:accumulate;text-transform:none;" d="m-22.094,244.47c-17.273,9.4099-34.586,18.745-51.875,28.125-12.815-8.1419-25.61-16.316-38.438-24.438-14.16,12.757-28.334,25.499-42.5,38.25-19.854-2.5669-39.712-5.0958-59.562-7.6875,4.0392,2.6112,7.8132,5.3801,7.7188,10.656l7.7812,34.5c-5.7557,4.8909-11.549,9.7378-17.281,14.656,3.7256,20.321,6.4346,40.888,10.812,61.062,2.6886,4.5272-0.24271,8.4409-2.4062,12.438-2.3686,3.4958-3.8498,9.5999-6.7812,11.469-4.8917-3.3766-8.0769-3.2916-8.1875,3.3125l-7.1562,28.219c5.2163,4.3499,6.1404-2.6281,8.3438-6.1562l9.7812-18.969,16.344,7.5c2.5712,9.7164,5.0743,19.451,7.6875,29.156,20.77,1.9558,41.542,3.8945,62.312,5.8438,7.678,8.0199,15.343,16.052,23.031,24.062,0.50821-8.698,1.0209-17.396,1.5312-26.094l14.094-3.75c5.2763,5.497,11.584,24.028,20.688,15.219,14.712-10.696,29.083-22.072,44-32.344,22.49-5.9432,44.973-11.924,67.469-17.844-11.268-4.4501-22.563-8.8319-33.844-13.25,6.474-6.2098,13.449-12.617,19.656-18.656,2.5041-11.402,4.9986-22.817,7.5-34.219-9.4611-6.3762-18.894-12.795-28.344-19.188,2.7313-11.874,5.4445-23.753,8.1875-35.625-9.6732-2.2355-19.355-4.4348-29.031-6.6562-3.894-19.852-7.3959-39.805-11.531-59.594z"/>
    <path id="path4263" style="baseline-shift:baseline;block-progression:tb;color:#000000;direction:ltr;text-indent:0;text-align:start;enable-background:accumulate;text-transform:none;" d="m-25.344,251.56,9.8125,51.375c-7.8758-2.2402-16.668-2.318-23.156-7.875l-30.781-19.594,44.125-23.906z"/>
    <path id="path4261" style="baseline-shift:baseline;block-progression:tb;color:#000000;direction:ltr;text-indent:0;text-align:start;enable-background:accumulate;text-transform:none;" d="m-111.91,254,33.25,21.125-31.5,17.062-38.656-5l36.91-33.18z"/>
    <path id="path4259" style="baseline-shift:baseline;block-progression:tb;color:#000000;direction:ltr;text-indent:0;text-align:start;enable-background:accumulate;text-transform:none;" d="m-74.188,278c13.454,8.4612,26.777,17.229,40.312,25.5l19.312,4.4375,4.875,25.625c-18.457-12.867-36.927-25.715-55.375-38.594-13.352,9.8395-26.731,19.643-40.094,29.469l-2.0312-28.562c11-5.9583,22-11.917,33-17.875z"/>
    <path id="path4257" style="baseline-shift:baseline;block-progression:tb;color:#000000;direction:ltr;text-indent:0;text-align:start;enable-background:accumulate;text-transform:none;" d="m-202.59,286.5c10.924,4.2274,22.038,8.1399,32.844,12.562l-25.219,21.375-7.625-33.938z"/>
    <path id="path4255" style="baseline-shift:baseline;block-progression:tb;color:#000000;direction:ltr;text-indent:0;text-align:start;enable-background:accumulate;text-transform:none;" d="m-185.59,287.94,25.156,3.25c-3.2711,3.0555-5.6971,6.08-9.6562,2.6562l-15.5-5.9062z"/>
    <path id="path4253" style="baseline-shift:baseline;block-progression:tb;color:#000000;direction:ltr;text-indent:0;text-align:start;enable-background:accumulate;text-transform:none;" d="m-154.19,292,42.406,5.4688c0.86635,11.917,1.7156,23.834,2.5938,35.75,14.743-10.829,29.479-21.667,44.219-32.5l53.656,37.375c-27.498,16.461-55.01,32.9-82.5,49.375,22.695,17.66,45.396,35.312,68.094,52.969-16.817-0.41159-33.76-1.4311-50.5-1.4688l-17.688,7.875c-5.5227-5.7168-5.4067-12.812-4.4688-20.062-0.1229-4.9131,1.4342-10.421,0.375-15-5.9073-4.9201-17.841-23.509-23.781-12.188,2.3865,14.665,11.971,27.187,18,40.281-1.2302,3.9844,1.539,10.728-2.75,12.594l-21.375,9.5312-36.5-42.938,108.69-79.719c-0.85264-6.624-6.5226-2.4395-10.656-1.6875l-108.82,30.84c15.354-13.437,30.708-26.875,46.062-40.312-11.138-9.7083-22.315-19.372-33.469-29.062,2.8021-2.375,5.6042-4.75,8.4062-7.125z"/>
    <path id="path4251" style="baseline-shift:baseline;block-progression:tb;color:#000000;direction:ltr;text-indent:0;text-align:start;enable-background:accumulate;text-transform:none;" d="m-166.19,302.16,29.969,26.031-47.594,41.656-9.9688-44.25,27.594-23.438z"/>
    <path id="path4249" style="baseline-shift:baseline;block-progression:tb;color:#000000;direction:ltr;text-indent:0;text-align:start;enable-background:accumulate;text-transform:none;" d="M-9.5938,309.06,12.875,314.22,6.1562,343.56c-3.3599-2.75-8.1084-4.56-10.656-7.84l-5.0938-26.66z"/>
    <path id="path4247" style="baseline-shift:baseline;block-progression:tb;color:#000000;direction:ltr;text-indent:0;text-align:start;enable-background:accumulate;text-transform:none;" d="m-197.81,329,9.9375,44.188-13.031,25.281c-4.2042-19.197-6.7552-38.755-10.312-58.094l13.4-11.38z"/>
    <path id="path4245" style="baseline-shift:baseline;block-progression:tb;color:#000000;direction:ltr;text-indent:0;text-align:start;enable-background:accumulate;text-transform:none;" d="m-6.5,340.62,11.531,7.8125c-5.1114,22.155-10.165,44.323-15.312,66.469,4.3836,1.7497,8.793,3.4341,13.188,5.1562l-21.25,20.156-67.25-52.25,79.093-47.35z"/>
    <path id="path4243" style="baseline-shift:baseline;block-progression:tb;color:#000000;direction:ltr;text-indent:0;text-align:start;enable-background:accumulate;text-transform:none;" d="m-68.938,343.22c-34.097,25.016-68.166,50.071-102.28,75.062,11.713,13.766,23.416,27.542,35.125,41.312l-55.438-25.469-7.5938-28.906c5.0766-9.726,10.124-19.972,15.219-29.375,38.323-10.875,76.646-21.75,114.97-32.625z"/>
    <path id="path4241" style="baseline-shift:baseline;block-progression:tb;color:#000000;direction:ltr;text-indent:0;text-align:start;enable-background:accumulate;text-transform:none;" d="M9.1562,351.22,33.375,367.62c-2.2022,9.9295-4.2876,19.923-6.5625,29.812l-20.156,19.1c-3.2288-2.24-10.778-2.22-11.156-5.97l13.656-59.34z"/>
    <path id="path4239" style="baseline-shift:baseline;block-progression:tb;color:#000000;direction:ltr;text-indent:0;text-align:start;enable-background:accumulate;text-transform:none;" d="m-116.88,400.59c5.9571,5.5445,16.888,10.643,14.188,20.219-0.41781,4.8185,0.3075,15.01-3.6562,4.3125-3.9898-7.9178-8.6412-15.78-10.531-24.531z"/>
    <path id="path4237" style="baseline-shift:baseline;block-progression:tb;color:#000000;direction:ltr;text-indent:0;text-align:start;enable-background:accumulate;text-transform:none;" d="m-202.34,411.44,5.3125,20.156-12.688-5.8125,7.375-14.344z"/>
    <path id="path4235" style="baseline-shift:baseline;block-progression:tb;color:#000000;direction:ltr;text-indent:0;text-align:start;enable-background:accumulate;text-transform:none;" d="m7.7188,421.97,22.625,8.8125-44.375,11.75,21.75-20.562z"/>
    <path id="path4233" style="baseline-shift:baseline;block-progression:tb;color:#000000;direction:ltr;text-indent:0;text-align:start;enable-background:accumulate;text-transform:none;" d="m-218.06,427.06c4.8269-0.0434-4.4153,12.286-1.8125,7.2188l1.8125-7.2188z"/>
    <path id="path4231" style="baseline-shift:baseline;block-progression:tb;color:#000000;direction:ltr;text-indent:0;text-align:start;enable-background:accumulate;text-transform:none;" d="m-190,439.94,59.406,27.281-53.531-5l-5.88-22.28z"/>
    <path id="path4229" style="baseline-shift:baseline;block-progression:tb;color:#000000;direction:ltr;text-indent:0;text-align:start;enable-background:accumulate;text-transform:none;" d="m-74.781,443.47,50.219,1.6562c-19.884,5.7478-40.155,10.71-60.188,16.156-4.7976-6.0373-9.2309-12.175,0.84375-13.781l9.125-4.0312z"/>
    <path id="path4227" style="baseline-shift:baseline;block-progression:tb;color:#000000;direction:ltr;text-indent:0;text-align:start;enable-background:accumulate;text-transform:none;" d="m-99.531,446.47z"/>
    <path id="path4225" style="baseline-shift:baseline;block-progression:tb;color:#000000;direction:ltr;text-indent:0;text-align:start;enable-background:accumulate;text-transform:none;" d="m-95.719,452.78c6.2362,6.8292,7.41,11.507-2.4062,12.031-5.0891,2.0676-0.99532-7.0652-1.875-10.125l4.2812-1.9062z"/>
    <path id="path4223" style="baseline-shift:baseline;block-progression:tb;color:#000000;direction:ltr;text-indent:0;text-align:start;enable-background:accumulate;text-transform:none;" d="m-35.062,452.94-36.031,26.75c-4.0936-5.3366-17.33-16.138-3.8125-16.219l39.844-10.53z"/>
    <path id="path4221" style="baseline-shift:baseline;block-progression:tb;color:#000000;direction:ltr;text-indent:0;text-align:start;enable-background:accumulate;text-transform:none;" d="m-104.81,456.84c-1.0772,3.8744,1.8889,11.056-4.1875,10.844-4.7126,1.7666-10.333,0.98046-14.844-0.3125-2.5873-3.2378,7.0017-4.0868,9.5312-6.3125l9.5-4.2188z"/>
    <path id="path3009-7-8-5-4" style="baseline-shift:baseline;block-progression:tb;color:#000000;direction:ltr;text-indent:0;text-align:start;enable-background:accumulate;text-transform:none;" d="m-105.69,471.62-0.8125,13.906-11.906-12.469c4.4669,1.0969,8.4504-0.17968,12.719-1.4375z"/>
   </g>
   <g id="g3031-6-6" transform="matrix(0.66872714,-0.44434859,0.47305021,0.62815311,1105.5046,-18.385456)" stroke-miterlimit="4" stroke-dasharray="none" stroke-width="5.87705374">
    <path id="path3009-7-8-5" stroke-linejoin="miter" d="m-292.33,260.34-122.17,55.77,14.63,58.162-151.91-116.7-46.012-76.495,59.261-72.159,50.652-52.098,94.821,18.762,71.387,11.953,5.2711,116.1zm-130.25-240.42-0.4703,0.5372-79.63,90.542-115.74,22.29-0.70064,0.13377,39.08-16.85,22.801,121.18-8.7809,43.749,84.41-55.965c22.374-102.94-62.564,88.662-50.196,82.433l78.25,20.846,80.248,11.347,0.65461,0.31125,38.793-18.192-1.0465-63.935,80.543-86.072,0.47029-0.53721-0.63452-0.27191-110.74-47.715-56.981-103.23-0.33066-0.60033zm-0.1946,1.7111,56.721,102.71,0.0803,0.15751-33.078,28.339,63.058,17.168,0.24971,87.767-0.1374,0.11965-0.0283,0.18796-111.75-42.373-5.644,112.1-0.14861-0.0483-0.17755,0.0408-39.104-56.489-63.504-33.634,0.0186-0.15824-0.0802-0.15751,19.385-74.026,165.42,45.189-130.67-96.604,85.168,15.462,6.3106-59.766z" fill-rule="evenodd" transform="matrix(0.95104627,-0.30904854,0.30904854,0.95104627,-77.957653,-136.56112)" stroke="#000" stroke-linecap="butt" stroke-miterlimit="4" stroke-dasharray="none" stroke-width="5.87705374" fill="#FF0"/>
   </g>
  </g>
  <g id="g4426" fill-rule="evenodd" transform="matrix(0.42237995,0,0,0.42237995,-210.23828,185.14325)">
   <path id="path4423" d="m836.64,309.2-0.25,0.5-24.562,51.531-43.531-0.71875-12.406,56.844-44.188,22.219-0.5,0.21875,0.40625,0.40625,30.688,32.281-5.5938,22.656,37.906,44.094,16.062,15.781,4.625,16.375,10.594-1.4062,21.781,21.406,51.938-28.688,27.25,7.6562-11.344-20.75,11.156-13.562c13.457,6.612,23.44,10.449,22.281,7.5938l17.656-56.219,39.875-48.531-30.875,6.125,5.7188-29.594,0.28125-0.53125-12.25-32.688-33.031-1.5312-12.938-35.562-25.938,9.7188-40.438-45.219-0.375-0.40625zm-41.344,262.19-16.719,2.2188,12.625,14.281,7.7812-3.4375-3.6875-13.062z" fill="#ffa2e3"/>
   <path id="path3009-7-8-5-8" stroke-linejoin="miter" d="m903.38,345.1,37.398,102.86,45.696-9.0838-97.46,118.62-61.36,33.876-53.045-52.144-37.927-44.091,18.986-76.739,12.613-57.882,90.085,1.4729zm-192.18,94.705,0.39354,0.41206,66.309,69.747,21.08,74.497-7.7866,3.4378-12.626-14.283,94.84-12.634,33.44,9.3753-39.329-71.939c-78.603-23.463,65.659,55.673,61.422,45.232l19.818-63.061,12.561-65.171,0.2716-0.52072-12.249-32.686-49.523-2.3318-62.807-70.272-0.39353-0.41205-0.2403,0.50623-42.14,88.333-82.561,41.529-0.48011,0.24094zm1.3149,0.24476,82.153-41.341,0.12566-0.0579,20.37,28.51,16.255-50.799,67.926,4.1732,0.0861,0.11853,0.14411,0.0326-38.053,89.426,86.478,10.215-0.044,0.11937,0.023,0.14749-45.553,29.215-29.018,50.344-0.12157-0.0231-0.12566,0.0579-56.368-19.572,42.761-133.26-80.909,102.22,15.977-68.996-45.949-8.1506z" stroke="#000" stroke-linecap="butt" stroke-miterlimit="4" stroke-dasharray="none" stroke-width="4.68777561" fill="#ffa200"/>
  </g>
 </g>
 <g id="layer2" transform="translate(-60.269341,-206.45025)">
  <path id="path3005" stroke-linejoin="miter" d="m72.394,290.93,26.851,129.88" stroke="#808080" stroke-linecap="butt" stroke-miterlimit="4" stroke-dasharray="none" stroke-width="1.48424315" fill="none"/>
  <path id="path3007" stroke-linejoin="miter" d="M237.73,292.14,208.91,421.11" stroke="#000" stroke-linecap="butt" stroke-miterlimit="4" stroke-dasharray="none" stroke-width="1.48424315" fill="none"/>
  <path id="path3922" style="baseline-shift:baseline;block-progression:tb;color:#000000;direction:ltr;text-indent:0;text-align:start;enable-background:accumulate;text-transform:none;" d="m231.94,311.44c0,0.66465-0.3076,1.3668-1.1747,2.2043-0.86714,0.83752-2.2739,1.7307-4.1446,2.6003-3.7415,1.7391-9.3333,3.387-16.275,4.9102-13.883,3.0464-33.202,5.6381-54.672,8.0516-21.445,2.4108-40.399,3.8822-53.893,3.6826-6.7468-0.0998-12.133-0.62605-15.694-1.6103-1.7804-0.49214-3.0937-1.1085-3.8674-1.7291-0.77371-0.62063-1.8829-1.1389-1.8829-1.8215l-0.92669,0.3017c0,1.485,0.0301,2.5407,1.2256,3.4997,1.1956,0.95904,2.7992,1.6441,4.7782,2.1911,3.9579,1.094,9.4844,1.6013,16.341,1.7027,13.713,0.20281,32.701-1.2926,54.197-3.709,21.502-2.4171,40.866-5.0038,54.936-8.0912,7.035-1.5437,12.748-3.1969,16.803-5.0818,2.0276-0.94246,3.6479-1.9328,4.831-3.0755s1.9535-2.5228,1.9535-4.0258z" fill-rule="nonzero" fill="url(#linearGradient4379)"/>
  <path id="path2985-9" style="baseline-shift:baseline;block-progression:tb;color:#000000;direction:ltr;text-indent:0;text-align:start;enable-background:accumulate;text-transform:none;" fill="url(#linearGradient4367)" d="m71.911,290.02c0,2.0603,0.66555,4.2888,2.1081,5.6267s2.3899,2.8827,4.6518,3.8976c4.524,2.0299,10.728,3.7308,18.334,5.1742,15.211,2.8867,35.993,4.6462,58.962,4.6462,22.968,0,43.751-1.7594,58.962-4.6462,7.6054-1.4434,13.81-3.1443,18.334-5.1742,2.262-1.0149,4.1144-2.1071,5.5569-3.445,1.4426-1.3379,2.5607-3.1138,2.5607-5.1742l-1.8642-0.74667c0,0.10577-3.6721,1.1904-4.4318,1.895-0.75978,0.70465-2.1575,1.5931-4.0786,2.4551-3.8423,1.724-9.7391,3.3957-17.093,4.7914-14.708,2.7913-35.259,4.5538-57.945,4.5538-22.687,0-43.237-1.7624-57.945-4.5538-7.3541-1.3957-13.264-3.0674-17.106-4.7914-1.9211-0.86201-3.3056-1.7504-4.0654-2.4551-0.75978-0.70465-2.012-1.7968-2.012-1.9026z"/>
  <path id="path3922-3" style="baseline-shift:baseline;block-progression:tb;color:#000000;direction:ltr;text-indent:0;text-align:start;enable-background:accumulate;text-transform:none;" fill="url(#linearGradient4391)" d="m221.62,361.5c0,0.73022-1.1221,1.434-1.8433,2.2307-0.7212,0.79671-1.8972,1.6311-3.4714,2.4419-3.1484,1.6215-7.8854,3.1249-13.807,4.4746-11.842,2.6993-28.406,4.8407-46.937,6.8373-18.185,1.9593-34.601,3.3613-46.369,3.1942-5.8844-0.0835-10.625-0.58299-13.727-1.5179-1.5514-0.46747-2.6741-1.0448-3.3394-1.6367-0.66539-0.59196-1.9774-1.2122-1.9774-1.9414l-0.40094,0.42666c0,1.4425-0.39248,2.4402,0.68885,3.4022,1.0813,0.96201,2.535,1.6452,4.303,2.1779,3.536,1.0655,8.4128,1.5384,14.414,1.6235,12.002,0.17036,28.455-1.2446,46.673-3.2074,18.563-1.9999,35.17-4.1417,47.227-6.8901,6.0288-1.3742,10.918-2.8854,14.414-4.6858,1.7478-0.90017,3.1608-1.8788,4.1842-3.0095,1.0234-1.1306,1.1166-2.5855,1.1166-4.0269z"/>
  <path id="path3922-3-6" style="baseline-shift:baseline;block-progression:tb;color:#000000;direction:ltr;text-indent:0;text-align:start;enable-background:accumulate;text-transform:none;" fill="url(#linearGradient4385)" d="m226.56,338.59c0,0.69724-1.0272,1.3582-1.8158,2.1515-0.78856,0.79329-2.0677,1.6346-3.7882,2.4419-3.441,1.6145-8.6063,3.1186-15.021,4.501-12.829,2.7648-30.696,5.123-50.514,7.7744-20.292,2.7148-37.705,4.9542-49.946,5.425-6.1205,0.23535-10.959,0.0124-14.097-0.73917-1.5688-0.37577-2.6934-0.8912-3.3394-1.4255-0.64599-0.53433-1.6178-1.1049-1.6178-1.8358l-1.0409,0.53334c0,1.4389-0.0554,2.3429,1.0484,3.256,1.1038,0.91302,2.5625,1.4976,4.3558,1.9271,3.5866,0.8591,8.5557,1.0446,14.783,0.80516,12.455-0.47894,29.885-2.7223,50.184-5.4381,19.816-2.6512,37.701-5.01,50.712-7.814,6.5056-1.402,11.79-2.9028,15.562-4.6726,1.886-0.88489,3.4054-1.828,4.5142-2.9435s1.275-2.474,1.275-3.9466z"/>
  <path id="path3999" style="baseline-shift:baseline;block-progression:tb;color:#000000;direction:ltr;text-indent:0;text-align:start;enable-background:accumulate;text-transform:none;" fill="url(#linearGradient4361)" d="m98.576,420.78c0,3.4675,0.69298,5.4988,3.858,7.6406s5.3799,4.4131,10.529,5.8869c10.299,2.9477,25.809,4.9385,41.195,4.9385s29.312-1.7645,39.611-4.7122c5.1494-1.4739,8.9609-4.4972,12.126-6.639,3.165-2.1418,3.1839-4.2873,4.2505-7.3281l-2.5043,0.21333c0,0.87547-1.999,2.2196-4.3951,3.841-2.396,1.6214-6.2008,3.2608-10.995,4.633-9.5885,2.7444-23.132,4.501-38.093,4.501s-28.518-1.7566-38.107-4.501c-4.7942-1.3722-8.599-3.0116-10.995-4.633s-5.0629-3.3427-5.0629-4.2181z"/>
 </g>
</svg>
