<?xml version="1.0" standalone="no"?>
<!DOCTYPE svg PUBLIC "-//W3C//DTD SVG 1.1//EN" "http://www.w3.org/Graphics/SVG/1.1/DTD/svg11.dtd">
<svg width="100%" height="100%" viewBox="0 0 200 114" version="1.1" xmlns="http://www.w3.org/2000/svg" xmlns:xlink="http://www.w3.org/1999/xlink" xml:space="preserve" style="fill-rule:evenodd;clip-rule:evenodd;stroke-linecap:round;stroke-linejoin:round;stroke-miterlimit:1.41421;">
    <g id="Layer1">
        <rect x="-30.2857" y="-30.2857" width="240.143" height="179.429" style="fill:rgb(215,254,255);"/>
        <rect x="-38.7143" y="81.2857" width="244.143" height="68.7143" style="fill:rgb(66,87,109);stroke-width:0.57px;stroke:rgb(153,153,153);"/>
        <path d="M-33.7143,80.7143L187.286,80.7143" style="fill:none;stroke-width:0.57px;stroke:rgb(153,153,153);"/>
    </g>
    <g id="Chair">
        <g id="Chair1">
            <path d="M150.697,63.4855C150.344,58.3155 145.885,54.3993 140.712,54.717C140.711,54.7171 140.711,54.7171 140.71,54.7172C138.254,54.868 135.96,55.9925 134.336,57.8411C132.713,59.6898 131.894,62.1099 132.062,64.5645C132.153,65.9 132.247,67.2748 132.338,68.6115C132.69,73.7815 137.15,77.6977 142.322,77.38C142.323,77.3799 142.324,77.3799 142.324,77.3798C144.78,77.229 147.074,76.1045 148.698,74.2558C150.321,72.4072 151.14,69.9871 150.973,67.5325C150.882,66.197 150.788,64.8222 150.697,63.4855Z" style="fill:rgb(69,24,0);stroke-width:0.57px;stroke:rgb(121,122,123);"/>
            <rect x="141.968" y="85.4286" width="2.10784" height="12.4286" style="fill:rgb(69,24,0);stroke-width:0.57px;stroke:rgb(121,122,123);"/>
            <rect x="156.723" y="82" width="2.10784" height="12.4286" style="fill:rgb(69,24,0);stroke-width:0.57px;stroke:rgb(121,122,123);"/>
            <rect x="135.795" y="82.2857" width="2.10784" height="10.4735" style="fill:rgb(69,24,0);stroke-width:0.57px;stroke:rgb(121,122,123);"/>
            <rect x="149.195" y="81.3836" width="2.10784" height="10.4735" style="fill:rgb(69,24,0);stroke-width:0.57px;stroke:rgb(121,122,123);"/>
            <path d="M161.58,79.4977C161.27,76.937 158.958,75.1023 156.393,75.382C151.62,75.9027 144.217,76.7103 139.436,77.2319C138.208,77.3658 137.084,77.9859 136.316,78.9536C135.548,79.9213 135.2,81.1562 135.348,82.3826C135.348,82.3831 135.349,82.3837 135.349,82.3843C135.659,84.9449 137.971,86.7797 140.535,86.4999C145.308,85.9793 152.711,85.1717 157.493,84.6501C158.721,84.5161 159.844,83.8961 160.612,82.9284C161.38,81.9606 161.729,80.7258 161.58,79.4994C161.58,79.4988 161.58,79.4982 161.58,79.4977Z" style="fill:rgb(69,24,0);stroke-width:0.57px;stroke:rgb(121,122,123);"/>
        </g>
    </g>
    <g id="Chair2">
        <g id="Chair3">
            <path d="M177.893,55.9089C178.045,53.5651 179.122,51.3775 180.886,49.8275C182.651,48.2774 184.959,47.4918 187.303,47.6436C187.304,47.6436 187.305,47.6437 187.305,47.6437C189.649,47.7955 191.837,48.8721 193.387,50.6367C194.937,52.4014 195.722,54.7095 195.571,57.0534C195.465,58.6929 195.354,60.4057 195.248,62.0452C195.096,64.3891 194.019,66.5766 192.255,68.1267C190.49,69.6767 188.182,70.4623 185.838,70.3106C185.837,70.3105 185.836,70.3105 185.836,70.3104C183.492,70.1587 181.304,69.082 179.754,67.3174C178.204,65.5527 177.419,63.2446 177.57,60.9007C177.676,59.2613 177.787,57.5484 177.893,55.9089Z" style="fill:rgb(69,24,0);stroke-width:0.57px;stroke:rgb(121,122,123);"/>
            <rect x="184.143" y="78.3571" width="2" height="12.4286" style="fill:rgb(69,24,0);stroke-width:0.57px;stroke:rgb(121,122,123);"/>
            <rect x="170.143" y="74.9286" width="2" height="12.4286" style="fill:rgb(69,24,0);stroke-width:0.57px;stroke:rgb(121,122,123);"/>
            <rect x="190" y="75.2143" width="2" height="10.4735" style="fill:rgb(69,24,0);stroke-width:0.57px;stroke:rgb(121,122,123);"/>
            <rect x="177.286" y="74.3122" width="2" height="10.4735" style="fill:rgb(69,24,0);stroke-width:0.57px;stroke:rgb(121,122,123);"/>
            <path d="M167.533,72.4374C167.674,71.209 168.297,70.0871 169.266,69.3184C170.234,68.5496 171.468,68.1971 172.697,68.3383C177.157,68.8511 183.866,69.6224 188.326,70.1352C189.554,70.2764 190.676,70.8998 191.445,71.8682C192.214,72.8367 192.566,74.0708 192.425,75.2992C192.425,75.3 192.425,75.3009 192.425,75.3017C192.283,76.5301 191.66,77.652 190.692,78.4207C189.723,79.1895 188.489,79.542 187.261,79.4008C182.8,78.888 176.092,78.1167 171.632,77.6039C170.403,77.4627 169.281,76.8393 168.512,75.8709C167.744,74.9024 167.391,73.6683 167.532,72.4399C167.533,72.4391 167.533,72.4382 167.533,72.4374Z" style="fill:rgb(69,24,0);stroke-width:0.57px;stroke:rgb(121,122,123);"/>
        </g>
    </g>
    <g id="Table">
        <g>
            <ellipse cx="216.286" cy="103.786" rx="46.7143" ry="5.35714" style="fill:rgb(128,64,0);stroke-width:0.57px;stroke:rgb(121,122,123);"/>
            <path d="M202,80.5603L186.286,80.5603L186.286,102.714C192.814,105.689 204.872,105.602 208.857,102.714L202,80.5603Z" style="fill:rgb(128,64,0);stroke-width:0.14px;stroke:rgb(121,122,123);"/>
            <ellipse cx="198" cy="76.7857" rx="46.7143" ry="5.35714" style="fill:rgb(128,64,0);stroke-width:0.57px;stroke:rgb(121,122,123);"/>
            <rect x="152.429" y="69.4286" width="59.1429" height="7.92634" style="fill:rgb(128,64,0);"/>
            <path d="M156.714,68.5714L151.429,68.4286L151.143,76.7143C153.654,78.2802 155.607,78.3517 156.714,76.7857L156.714,68.5714Z" style="fill:rgb(128,64,0);"/>
            <ellipse cx="198.429" cy="68.5" rx="46.7143" ry="5.35714" style="fill:rgb(128,64,0);stroke-width:0.57px;stroke:rgb(121,122,123);"/>
        </g>
    </g>
    <g id="Layer7">
        <rect x="59.7143" y="4.71429" width="47.2857" height="76.2857" style="fill:rgb(35,30,123);stroke-width:0.14px;stroke:rgb(153,153,153);"/>
        <path d="M107,4.71429L86,4.85714L86,64.0952L107,81L107,4.71429Z" style="fill:rgb(66,221,255);stroke-width:0.57px;stroke:rgb(121,122,123);"/>
        <path d="M107.714,80.1429L107.714,4.71429L59.7143,4.71429L59.7143,80.1429" style="fill:none;stroke-width:3px;stroke:rgb(121,122,123);"/>
    </g>
    <g id="Client Front">
        <g id="Layer2">
            <g>
                <path d="M82.6501,73.4689L76.6635,73.4689L75.8377,47.5958L90.4258,47.5958L89.8753,73.4689L83.8887,73.4689L83.8887,57.0729L82.6501,57.0729L82.6501,73.4689Z" style="fill:rgb(230,201,140);"/>
                <path d="M82.6501,75.086C82.6501,74.4969 82.1726,74.0194 81.5835,74.0194L77.7989,74.0194C77.2098,74.0194 76.7323,74.4969 76.7323,75.086L76.7323,77.2191C76.7323,77.8082 77.2098,78.2857 77.7989,78.2857L81.5835,78.2857C82.1726,78.2857 82.6501,77.8082 82.6501,77.2191L82.6501,75.086Z" style="fill:rgb(121,122,123);"/>
                <path d="M89.5312,75.086C89.5312,74.4969 89.0537,74.0194 88.4647,74.0194L84.68,74.0194C84.091,74.0194 83.6135,74.4969 83.6135,75.086L83.6135,77.2191C83.6135,77.8082 84.091,78.2857 84.68,78.2857L88.4647,78.2857C89.0537,78.2857 89.5312,77.8082 89.5312,77.2191L89.5312,75.086Z" style="fill:rgb(121,122,123);"/>
                <path d="M88.9119,34.7992C89.146,36.9292 89.4436,41.1485 89.4436,41.1485C89.4436,41.1485 90.2016,45.722 90.4258,47.5958L75.8377,47.5958L76.9783,41.1485L77.3516,34.7992L76.8011,34.7992L75.2873,47.4981L71.5714,47.4981L75.8896,27.9556L76.3713,27.1298L77.197,26.9947L89.0062,26.9922L89.6918,27.2675L90.3136,27.9531L94.6921,47.4981L90.9763,47.4981L89.6001,34.7992L88.9119,34.7992Z" style="fill:white;stroke-width:0.14px;stroke:rgb(121,122,123);"/>
                <path d="M84.2698,26.9523L83.1318,32.2233L81.9937,26.9523" style="fill:white;stroke-width:0.14px;stroke:rgb(153,153,153);"/>
                <path d="M88.9119,17.2154C88.9119,15.6763 87.6642,14.4286 86.1251,14.4286L80.1385,14.4286C78.5993,14.4286 77.3516,15.6763 77.3516,17.2154L77.3516,22.7892C77.3516,24.3283 78.5993,25.576 80.1385,25.576L86.1251,25.576C87.6642,25.576 88.9119,24.3283 88.9119,22.7892L88.9119,17.2154Z" style="fill:rgb(235,235,235);"/>
                <path d="M75.1632,48.7345C75.1632,48.2576 74.7766,47.871 74.2996,47.871L72.5726,47.871C72.0957,47.871 71.7091,48.2576 71.7091,48.7345L71.7091,51.6768C71.7091,52.1537 72.0957,52.5404 72.5726,52.5404L74.2996,52.5404C74.7766,52.5404 75.1632,52.1537 75.1632,51.6768L75.1632,48.7345Z" style="fill:rgb(235,235,235);"/>
                <path d="M94.5545,48.7345C94.5545,48.2576 94.1679,47.871 93.691,47.871L91.9639,47.871C91.487,47.871 91.1004,48.2576 91.1004,48.7345L91.1004,51.6768C91.1004,52.1537 91.487,52.5404 91.9639,52.5404L93.691,52.5404C94.1679,52.5404 94.5545,52.1537 94.5545,51.6768L94.5545,48.7345Z" style="fill:rgb(235,235,235);"/>
            </g>
        </g>
    </g>
    <g id="Developer">
        <g id="Developer Back">
            <g id="Layer5">
                <g id="Layer21">
                    <g>
                        <path id="left foot" d="M45.4286,88.4286C45.4286,87.7974 44.9169,87.2857 44.2857,87.2857L39.2857,87.2857C38.6545,87.2857 38.1429,87.7974 38.1429,88.4286L38.1429,90.7143C38.1429,91.3455 38.6545,91.8571 39.2857,91.8571L44.2857,91.8571C44.9169,91.8571 45.4286,91.3455 45.4286,90.7143L45.4286,88.4286Z" style="fill:rgb(235,235,235);stroke-width:0.14px;stroke:rgb(121,122,123);"/>
                        <path d="M44.2857,86.7143L37.8571,86.7143L36.5402,58.1233L54,59.5714L52.5714,89L45.7143,89.1429L45.1429,69.7143L44.6639,69.4248L44.2857,86.7143Z" style="fill:rgb(93,177,255);stroke-width:0.14px;stroke:rgb(121,122,123);"/>
                        <path d="M52.1312,42.8158C52.4103,45.3558 52.7652,50.3874 52.7652,50.3874C52.7652,50.3874 53.7326,57.4798 54,59.7143L36.5402,58.1233L37.9003,50.3874L38.3455,42.8158L37.689,42.8158L35.8837,57.9592L31.4526,57.9592L36.602,34.6548L37.1764,33.6701L38.1611,33.5089L50.4681,34.3861L51.2857,34.7143L52.0272,35.5319L63.8496,50.2857L60.4185,52.5714L52.9518,42.8158L52.1312,42.8158Z" style="fill:rgb(70,81,86);stroke-width:0.14px;stroke:rgb(121,122,123);"/>
                        <path id="right foot" d="M54.8571,90.9054C54.8571,90.203 54.2877,89.6335 53.5852,89.6335L47.0846,89.6335C46.3822,89.6335 45.8127,90.203 45.8127,90.9054L45.8127,93.4492C45.8127,94.1516 46.3822,94.7211 47.0846,94.7211L53.5852,94.7211C54.2877,94.7211 54.8571,94.1516 54.8571,93.4492L54.8571,90.9054Z" style="fill:rgb(235,235,235);stroke-width:0.14px;stroke:rgb(121,122,123);"/>
                        <path id="head" d="M52.3932,22.5046C52.5523,20.676 51.1989,19.0648 49.3704,18.9057L42.2582,18.2871C40.4297,18.1281 38.8184,19.4815 38.6594,21.31L38.0834,27.9317C37.9244,29.7602 39.2778,31.3714 41.1063,31.5305L48.2185,32.1491C50.047,32.3081 51.6582,30.9548 51.8173,29.1262L52.3932,22.5046Z" style="fill:rgb(235,235,235);stroke-width:0.14px;stroke:rgb(121,122,123);"/>
                        <path d="M35.7358,59.4813C35.7358,58.9126 35.2747,58.4515 34.706,58.4515L32.6465,58.4515C32.0778,58.4515 31.6167,58.9126 31.6167,59.4813L31.6167,62.99C31.6167,63.5587 32.0778,64.0197 32.6465,64.0197L34.706,64.0197C35.2747,64.0197 35.7358,63.5587 35.7358,62.99L35.7358,59.4813Z" style="fill:rgb(235,235,235);stroke-width:0.14px;stroke:rgb(121,122,123);"/>
                        <path d="M64.7732,51.3472C64.3173,51.0072 63.6721,51.1012 63.3321,51.557L62.1008,53.208C61.7608,53.6639 61.8548,54.3091 62.3107,54.6491L65.1233,56.7467C65.5792,57.0867 66.2244,56.9928 66.5644,56.5369L67.7956,54.886C68.1357,54.4301 68.0417,53.7849 67.5858,53.4449L64.7732,51.3472Z" style="fill:rgb(235,235,235);stroke-width:0.14px;stroke:rgb(121,122,123);"/>
                    </g>
                </g>
            </g>
        </g>
    </g>
</svg>
