<?xml version="1.0" encoding="UTF-8"?>
<svg viewBox="0 0 16 16" xmlns="http://www.w3.org/2000/svg" xmlns:xlink="http://www.w3.org/1999/xlink">
<g transform="matrix(0.133333,0,0,0.133333,-13.9622,-7.17031)">
    <g transform="matrix(1,0,0,1,104.717,53.7773)">
        <path d="M60.048,0C26.884,0 0,26.9 0,60.048C0,93.196 26.884,120.048 60,120.095C93.163,120.095 120.047,93.212 120.047,60.048C120.047,26.884 93.211,0 60,0L60.048,0" style="fill:rgb(130,130,130);"/>
    </g>
    <g transform="matrix(1,0,0,1,104.717,53.7773)">
        <path d="M97.147,48.319C97.14,48.272 97.128,48.227 97.121,48.18C97.105,48.09 97.089,48 97.065,47.912C97.051,47.859 97.032,47.808 97.015,47.758C96.99,47.68 96.964,47.602 96.933,47.526C96.912,47.473 96.886,47.421 96.862,47.37C96.829,47.298 96.794,47.227 96.754,47.159C96.725,47.108 96.693,47.059 96.663,47.011C96.62,46.945 96.576,46.88 96.528,46.818C96.493,46.771 96.456,46.724 96.419,46.679C96.368,46.62 96.315,46.562 96.26,46.507C96.218,46.464 96.177,46.421 96.133,46.382C96.074,46.329 96.014,46.278 95.952,46.23C95.904,46.193 95.857,46.156 95.807,46.121C95.788,46.109 95.772,46.094 95.754,46.082L61.817,23.5C60.745,22.785 59.349,22.785 58.277,23.5L24.34,46.081C24.322,46.093 24.306,46.108 24.287,46.12C24.237,46.155 24.19,46.192 24.143,46.22C24.081,46.269 24.02,46.32 23.962,46.372C23.917,46.411 23.876,46.454 23.834,46.497C23.778,46.552 23.726,46.61 23.676,46.697C23.638,46.742 23.601,46.789 23.566,46.836C23.519,46.898 23.474,46.963 23.432,47.029C23.4,47.078 23.37,47.127 23.34,47.129C23.301,47.197 23.266,47.268 23.232,47.34C23.208,47.391 23.182,47.444 23.161,47.496C23.13,47.572 23.104,47.65 23.079,47.696C23.062,47.747 23.044,47.798 23.029,47.85C23.006,47.938 22.99,48.028 22.973,48.118C22.965,48.165 22.953,48.21 22.948,48.218C22.929,48.355 22.919,48.493 22.919,48.634L22.919,71.778C22.925,71.778 22.919,71.878 22.919,71.878C22.936,71.978 22.919,72.078 23.019,72.146C23.034,72.246 23.019,72.246 23.119,72.3C23.144,72.4 23.219,72.5 23.219,72.5C23.24,72.6 23.219,72.6 23.319,72.654C23.353,72.754 23.419,72.754 23.419,72.867C23.448,72.867 23.519,72.967 23.519,72.967C23.561,73.067 23.619,73.067 23.619,73.16C23.654,73.16 23.719,73.26 23.719,73.299C23.769,73.399 23.819,73.399 23.919,73.499C23.961,73.499 24.019,73.599 24.019,73.624C24.077,73.724 24.119,73.724 24.219,73.776C24.266,73.776 24.319,73.876 24.319,73.876C24.338,73.876 24.319,73.876 24.419,73.915L58.277,96.64C58.813,97.04 59.477,97.14 60.077,97.177C60.693,97.177 61.31,96.997 61.847,96.64L95.785,74.015C95.803,74.003 95.819,73.988 95.838,73.976C95.888,73.941 95.935,73.904 95.983,73.867C96.045,73.818 96.105,73.767 96.164,73.715C96.208,73.676 96.249,73.633 96.291,73.59C96.347,73.535 96.399,73.477 96.45,73.418C96.487,73.373 96.524,73.328 96.559,73.279C96.607,73.217 96.651,73.152 96.694,73.086C96.724,73.037 96.756,72.988 96.785,72.94C96.825,72.87 96.86,72.799 96.893,72.727C96.917,72.676 96.943,72.625 96.964,72.573C96.995,72.495 97.021,72.417 97.046,72.339C97.063,72.288 97.082,72.237 97.096,72.185C97.119,72.097 97.136,72.007 97.152,71.917C97.16,71.872 97.172,71.825 97.178,71.78C97.196,71.641 97.206,71.503 97.206,71.362L97.206,48.735C97.176,48.6 97.2,48.5 97.1,48.319L97.147,48.319ZM63.238,32.073L88.239,48.739L77.072,56.21L63.238,46.956L63.238,32.073ZM56.856,32.1L56.856,46.983L43.023,56.21L31.855,48.739L56.856,32.073L56.856,32.1ZM29.301,54.708L37.284,60.048L29.301,65.388L29.301,54.708ZM56.856,88.022L31.855,71.4L43.023,63.931L56.856,73.183L56.856,88.022ZM60.048,67.597L48.762,60.048L60.048,52.499L71.333,60.048L60.048,67.597ZM63.238,88.022L63.238,73.14L77.072,63.888L88.239,71.357L63.238,88.022ZM90.794,65.388L82.812,60.048L90.794,54.708L90.794,65.388Z" style="fill:white;"/>
    </g>
</g>
</svg>