<?xml version="1.0" encoding="UTF-8" standalone="no"?>
<!DOCTYPE svg PUBLIC "-//W3C//DTD SVG 1.1//EN" "http://www.w3.org/Graphics/SVG/1.1/DTD/svg11.dtd">
<svg width="100%" height="100%" viewBox="0 0 16 16" version="1.1" xmlns="http://www.w3.org/2000/svg" xmlns:xlink="http://www.w3.org/1999/xlink" xml:space="preserve" xmlns:serif="http://www.serif.com/" style="fill-rule:evenodd;clip-rule:evenodd;stroke-miterlimit:10;">
    <g id="Layer_1">
        <g transform="matrix(0.326518,0,0,0.326518,0.0619643,-0.156435)">
            <path d="M35.107,41.553L35.107,31.243L44.043,26.065L44.043,36.39L35.107,41.553" style="fill:rgb(130,130,130);fill-rule:nonzero;"/>
        </g>
        <g transform="matrix(0.326518,0,0,0.326518,0.0619643,-0.156435)">
            <path d="M14.75,31.418L5.965,26.325L5.965,36.511L14.75,41.63L14.75,31.418" style="fill:rgb(130,130,130);fill-rule:nonzero;"/>
        </g>
        <g transform="matrix(0.326518,0,0,0.326518,0.0619643,-0.156435)">
            <path d="M24.999,13.467L33.933,8.283L25.003,3.076L16.037,8.3L24.999,13.467" style="fill:rgb(130,130,130);fill-rule:nonzero;"/>
        </g>
    </g>
    <g id="Layer_2">
        <g transform="matrix(0.326518,0,0,0.326518,0.0619643,-0.156435)">
            <path d="M43.896,14.054L24.854,25.049L24.854,47.021" style="fill:none;stroke:rgb(130,130,130);stroke-width:3.91px;"/>
        </g>
        <g transform="matrix(0.326518,0,0,0.326518,0.0619643,-0.156435)">
            <path d="M5.965,14.111L24.976,25.049" style="fill:none;stroke:rgb(130,130,130);stroke-width:3.91px;"/>
        </g>
        <g transform="matrix(0.326518,0,0,0.326518,0.0619643,-0.156435)">
            <path d="M5.908,36.088L24.947,47.024L43.994,36.051L43.994,14.063L24.951,3.027L5.908,14.111L5.908,36.088Z" style="fill:none;stroke:rgb(130,130,130);stroke-width:3.91px;"/>
        </g>
    </g>
</svg>
