<?xml version="1.0" encoding="UTF-8"?>
<svg viewBox="0 0 16 16" xmlns="http://www.w3.org/2000/svg" xmlns:xlink="http://www.w3.org/1999/xlink">
<path fill="#828282" d="M8,16C3.6,16 0.021,12.421 0.021,8.021C0.021,3.622 3.6,0.042 8,0.042C12.4,0.042 15.979,3.622 15.979,8.021C15.979,12.421 12.4,16 8,16ZM14.729,9.113C14.496,9.04 12.62,8.48 10.484,8.822C11.375,11.272 11.738,13.267 11.808,13.681C13.337,12.647 14.425,11.01 14.729,9.113ZM10.662,14.305C10.561,13.707 10.165,11.623 9.208,9.137C9.193,9.142 9.178,9.147 9.163,9.152C5.319,10.492 3.939,13.157 3.817,13.408C4.972,14.309 6.425,14.847 8,14.847C8.944,14.847 9.844,14.654 10.662,14.305ZM2.937,12.588C3.091,12.324 4.962,9.227 8.476,8.091C8.565,8.062 8.655,8.035 8.745,8.01C8.574,7.623 8.388,7.235 8.192,6.853C4.789,7.872 1.486,7.829 1.188,7.823C1.186,7.892 1.185,7.962 1.185,8.032C1.185,9.782 1.848,11.38 2.937,12.588ZM1.329,6.636C1.634,6.64 4.441,6.652 7.629,5.805C6.5,3.798 5.282,2.11 5.103,1.864C3.196,2.763 1.771,4.521 1.329,6.636ZM6.403,1.406C6.591,1.658 7.829,3.344 8.946,5.396C11.369,4.487 12.395,3.108 12.518,2.934C11.314,1.866 9.732,1.216 8,1.216C7.45,1.216 6.915,1.282 6.403,1.406ZM13.275,3.722C13.132,3.916 11.99,5.38 9.47,6.409C9.628,6.734 9.78,7.064 9.922,7.396C9.972,7.514 10.021,7.631 10.069,7.748C12.336,7.463 14.59,7.92 14.814,7.967C14.799,6.359 14.225,4.881 13.275,3.722Z"/>
</svg>