<?xml version="1.0" encoding="UTF-8"?>
<svg viewBox="0 0 16 16" xmlns="http://www.w3.org/2000/svg" xmlns:xlink="http://www.w3.org/1999/xlink">
<g transform="matrix(0.0599487,0,0,0.0599487,-2.69636e-15,0)">
    <g transform="matrix(1,0,0,1,-123.553,-112.552)">
        <path d="M266.11,379.447L138.283,379.447C130.146,379.447 123.553,372.851 123.553,364.717L123.553,127.283C123.553,119.146 130.146,112.552 138.283,112.552L375.716,112.552C383.85,112.552 390.446,119.146 390.446,127.283L390.446,364.717C390.446,372.851 383.85,379.447 375.716,379.447L307.705,379.447L307.705,276.092L342.398,276.092L347.592,235.812L307.705,235.812L307.705,210.095C307.705,198.433 310.943,190.486 327.667,190.486L348.997,190.476L348.997,154.45C345.307,153.96 332.646,152.863 317.916,152.863C287.163,152.863 266.11,171.634 266.11,206.107L266.11,235.812L231.329,235.812L231.329,276.092L266.11,276.092L266.11,379.447Z" style="fill:rgb(130,130,130);"/>
    </g>
</g>
</svg>