<?xml version="1.0" encoding="UTF-8"?>
<svg viewBox="0 0 16 16" xmlns="http://www.w3.org/2000/svg" xmlns:xlink="http://www.w3.org/1999/xlink">
<path d="M13.633,13.634L11.26,13.634L11.26,9.921C11.26,9.036 11.245,7.896 10.028,7.896C8.793,7.896 8.604,8.861 8.604,9.857L8.604,13.634L6.234,13.634L6.234,5.999L8.508,5.999L8.508,7.043L8.541,7.043C8.858,6.443 9.631,5.81 10.786,5.81C13.189,5.81 13.633,7.39 13.633,9.446L13.633,13.634ZM3.558,4.956C2.796,4.956 2.181,4.339 2.181,3.58C2.181,2.82 2.796,2.204 3.558,2.204C4.317,2.204 4.933,2.82 4.933,3.58C4.933,4.339 4.317,4.956 3.558,4.956ZM4.745,13.634L2.37,13.634L2.37,5.999L4.745,5.999L4.745,13.634ZM14.815,0L1.18,0C0.528,0 0,0.517 0,1.154L0,14.846C0,15.483 0.528,16 1.18,16L14.815,16C15.468,16 15.999,15.483 15.999,14.846L15.999,1.154C15.999,0.517 15.468,0 14.815,0Z" style="fill:#828282;fill-rule:nonzero;"/><path d="M18.924,12.139L18.59,12.139L18.59,11.461L19.012,11.461C19.23,11.461 19.481,11.498 19.481,11.783C19.481,12.111 19.228,12.139 18.924,12.139ZM19.255,12.338C19.592,12.297 19.768,12.111 19.768,11.8C19.768,11.419 19.538,11.235 19.064,11.235L18.302,11.235L18.302,13.235L18.59,13.235L18.59,12.364L18.943,12.364L18.951,12.374L19.5,13.235L19.806,13.235L19.217,12.343L19.255,12.338Z" style="fill:#828282;fill-rule:nonzero;"/><path d="M18.956,13.882C18.049,13.882 17.34,13.166 17.34,12.236C17.34,11.309 18.049,10.593 18.956,10.593C19.861,10.593 20.572,11.309 20.572,12.236C20.572,13.166 19.861,13.882 18.956,13.882ZM18.956,10.345C17.892,10.345 17.06,11.177 17.06,12.236C17.06,13.299 17.892,14.129 18.956,14.129C20.018,14.129 20.849,13.299 20.849,12.236C20.849,11.177 20.018,10.345 18.956,10.345Z" style="fill:#828282;fill-rule:nonzero;"/>
</svg>